<svg xmlns="http://www.w3.org/2000/svg" version="1.1" xmlns:xlink="http://www.w3.org/1999/xlink" xmlns:svgjs="http://svgjs.com/svgjs" width="1366" height="768" preserveAspectRatio="none" viewBox="0 0 1366 768"><g mask="url(&quot;#SvgjsMask1007&quot;)" fill="none"><rect width="1366" height="768" x="0" y="0" fill="#0e2a47"></rect><path d="M318.44 896.07C491.23 873.7 551.52 503.13 875.96 477.86 1200.4 452.59 1280.49 230.27 1433.48 224.42" stroke="rgba(51,121,194,0.58)" stroke-width="2"></path><path d="M442.34 773.8C577.37 730.5 606.49 347.85 807.52 339.79 1008.55 331.73 990.11 435.79 1172.7 435.79 1355.29 435.79 1443.49 340.59 1537.88 339.79" stroke="rgba(51,121,194,0.58)" stroke-width="2"></path><path d="M104.86 914.18C242.44 893.74 313.31 569.38 539.53 566.88 765.74 564.38 756.86 662.88 974.19 662.88 1191.53 662.88 1297.58 567.45 1408.86 566.88" stroke="rgba(51,121,194,0.58)" stroke-width="2"></path><path d="M385.05 803.36C572.55 779.92 686.28 354.74 993.07 354.37 1299.87 354 1433.45 631.63 1601.1 638.53" stroke="rgba(51,121,194,0.58)" stroke-width="2"></path><path d="M96.48 892.59C304.84 855.75 402.41 341.75 735.66 337.81 1068.92 333.87 1209.07 512.84 1374.85 514.45" stroke="rgba(51,121,194,0.58)" stroke-width="2"></path></g><defs><mask id="SvgjsMask1007"><rect width="1366" height="768" fill="#ffffff"></rect></mask></defs></svg>