<svg id="exv9ck0vac2n1" xmlns="http://www.w3.org/2000/svg" xmlns:xlink="http://www.w3.org/1999/xlink" viewBox="0 0 792 612" shape-rendering="geometricPrecision" text-rendering="geometricPrecision"><g id="exv9ck0vac2n2"><path id="exv9ck0vac2n3" d="M200,376.500000L190,376.500000L190,372.500000L199.700000,372.500000L199.700000,369.400000L190,369.400000L190,365.300000L200,365.300000L200,362L186.600000,362C186.600000,368,186.600000,374,186.600000,379.900000L200,379.900000L200,376.500000L200,376.500000ZM235.900000,361.900000L232.100000,361.900000L226.700000,375.900000L221.300000,361.900000L217.500000,361.900000L224.900000,379.900000L228.400000,379.900000L235.900000,361.900000L235.900000,361.900000ZM257.100000,379.900000L257.100000,362L253.700000,362L253.700000,379.900000L257.100000,379.900000L257.100000,379.900000ZM282.900000,361.900000C280.700000,361.900000,278.100000,361.900000,275.900000,361.900000L275.900000,379.800000C278.100000,379.800000,280.700000,379.800000,282.900000,379.800000C289.200000,379.800000,291.900000,375.200000,291.900000,370.700000C291.800000,366.300000,289,361.900000,282.900000,361.900000L282.900000,361.900000ZM279.200000,365.100000L282.900000,365.100000C286.800000,365.100000,288.400000,367.900000,288.500000,370.700000C288.600000,373.600000,287,376.600000,282.900000,376.600000L279.200000,376.600000L279.200000,365.100000L279.200000,365.100000ZM323.200000,376.500000L313.100000,376.500000L313.100000,372.500000L322.800000,372.500000L322.800000,369.400000L313.100000,369.400000L313.100000,365.300000L323.200000,365.300000L323.200000,362L309.800000,362C309.800000,368,309.800000,374,309.800000,379.900000L323.200000,379.900000L323.200000,376.500000L323.200000,376.500000ZM353.900000,373.100000L345.100000,362L342.400000,362L342.400000,379.900000L345.800000,379.900000L345.800000,367.800000L355.200000,379.900000L355.200000,379.900000L357.300000,379.900000L357.300000,362L353.900000,362L353.900000,373.100000L353.900000,373.100000ZM389.600000,375.300000C388.400000,376.500000,386.700000,377.100000,385.100000,377.100000C380.700000,377.100000,379,374,378.900000,371C378.900000,368,380.700000,364.800000,385.100000,364.800000C386.700000,364.800000,388.200000,365.300000,389.400000,366.500000L391.700000,364.300000C389.900000,362.500000,387.600000,361.600000,385.100000,361.600000C378.600000,361.600000,375.600000,366.400000,375.600000,371C375.600000,375.700000,378.400000,380.200000,385.100000,380.200000C387.700000,380.200000,390.100000,379.400000,391.900000,377.500000L389.600000,375.300000L389.600000,375.300000ZM423,376.500000L412.900000,376.500000L412.900000,372.500000L422.600000,372.500000L422.600000,369.400000L412.900000,369.400000L412.900000,365.300000L423,365.300000L423,362L409.600000,362C409.600000,368,409.600000,374,409.600000,379.900000L423,379.900000L423,376.500000L423,376.500000ZM460.100000,372.100000L465.300000,372.100000C466.700000,372.100000,468.700000,372.900000,468.700000,374.600000C468.700000,376.300000,466.700000,376.700000,465.300000,376.700000L460.100000,376.700000L460.100000,372.100000L460.100000,372.100000ZM460.100000,365L465.300000,365C467.400000,365,468.100000,366.400000,468.100000,367.200000C468.100000,368.200000,467.400000,369.100000,465.300000,369.100000L460.100000,369.100000L460.100000,365L460.100000,365ZM465.300000,361.900000C462.500000,361.900000,459.600000,361.900000,456.800000,361.900000L456.800000,379.800000C459.600000,379.800000,462.500000,379.800000,465.300000,379.800000C469,379.800000,472,378.500000,472,374.500000C472,373.400000,471.200000,371.100000,469.100000,370.500000C470.800000,369.800000,471.400000,368.400000,471.400000,367C471.400000,363.500000,468.800000,361.900000,465.300000,361.900000L465.300000,361.900000ZM504.400000,379.900000L508.100000,379.900000L500.100000,362L496.400000,362L488.400000,379.900000L492.100000,379.900000L493.600000,376.500000L503,376.500000L504.400000,379.900000L504.400000,379.900000ZM501.500000,373.300000L494.900000,373.300000L498.200000,365.700000L501.500000,373.300000L501.500000,373.300000ZM538.800000,364.900000C537.400000,362.100000,534.600000,361.300000,531.800000,361.300000C528.500000,361.300000,524.900000,362.800000,524.900000,366.500000C524.900000,370.500000,528.300000,371.500000,531.900000,371.900000C534.300000,372.200000,536,372.800000,536,374.500000C536,376.400000,534,377.200000,531.900000,377.200000C529.700000,377.200000,527.700000,376.300000,526.900000,374.400000L524.100000,375.900000C525.400000,379.200000,528.200000,380.300000,531.900000,380.300000C535.900000,380.300000,539.400000,378.600000,539.400000,374.600000C539.400000,370.300000,535.900000,369.400000,532.200000,368.900000C530.100000,368.600000,528.200000,368.200000,528.200000,366.600000C528.200000,365.300000,529.400000,364.200000,531.900000,364.200000C533.800000,364.200000,535.500000,365.200000,536.100000,366.200000L538.800000,364.900000L538.800000,364.900000ZM571.100000,376.500000L561,376.500000L561,372.500000L570.700000,372.500000L570.700000,369.400000L561,369.400000L561,365.300000L571.100000,365.300000L571.100000,362L557.700000,362C557.700000,368,557.700000,374,557.700000,379.900000L571.100000,379.900000L571.100000,376.500000L571.100000,376.500000ZM596.300000,361.900000C594.100000,361.900000,591.500000,361.900000,589.300000,361.900000L589.300000,379.800000C591.500000,379.800000,594.100000,379.800000,596.300000,379.800000C602.600000,379.800000,605.300000,375.200000,605.300000,370.700000C605.200000,366.300000,602.500000,361.900000,596.300000,361.900000L596.300000,361.900000ZM592.600000,365.100000L596.300000,365.100000C600.200000,365.100000,601.800000,367.900000,601.900000,370.700000C602,373.600000,600.400000,376.600000,596.300000,376.600000L592.600000,376.600000L592.600000,365.100000Z" opacity="0" clip-rule="evenodd" fill="rgb(49,56,59)" fill-rule="evenodd" stroke="none" stroke-width="1"/><path id="exv9ck0vac2n4" d="M9.400000,368.200000L176.600000,368.200000L176.600000,373.500000L9.400000,373.500000L9.400000,368.200000L9.400000,368.200000ZM615.300000,368.200000L782.500000,368.200000L782.500000,373.500000L615.300000,373.500000L615.300000,368.200000Z" clip-rule="evenodd" fill="rgb(49,56,59)" fill-rule="evenodd" stroke="none" stroke-width="1"/><polygon id="exv9ck0vac2n5" points="108.665628,296.600000 169.018225,296.600000 274.006596,296.600000 274.006596,291.300000 53.342414,291.300000 53.342414,296.600000" transform="matrix(1.10000000000000 0 0 1 84.96499790191650 76.90000000000032)" clip-rule="evenodd" fill="rgb(49,56,59)" fill-rule="evenodd" stroke="none" stroke-width="1"/><polygon id="exv9ck0vac2n6" points="-65.462912,296.600000 -5.438031,296.600000 98.980253,296.600000 98.980253,291.300000 -120.485721,291.300000 -120.485721,296.600000" transform="matrix(1.20000000000000 0 0 1 516.64191711853027 76.85000000000048)" clip-rule="evenodd" fill="rgb(49,56,59)" fill-rule="evenodd" stroke="none" stroke-width="1"/><g id="exv9ck0vac2n7" transform="matrix(1 0 0 1 0 55.00072631835940)" opacity="0"><path id="exv9ck0vac2n8" d="M429.200000,297.500000L426.400000,291.300000L416.800000,291.300000L395.800000,338.300000L395.800000,338.300000L395.800000,338.300000L395.800000,338.300000L395.800000,338.300000L395.800000,338.300000L395.800000,338.300000L395.800000,338.300000L395.800000,338.300000L395.800000,338.300000L395.800000,338.300000L395.900000,338.300000L396,338.300000L396.100000,338.300000L396.200000,338.300000L396.300000,338.300000L396.400000,338.300000L396.500000,338.300000L396.600000,338.300000L396.700000,338.300000L396.800000,338.300000L396.900000,338.300000L397,338.300000L397.100000,338.300000L397.200000,338.300000L397.300000,338.300000L397.400000,338.300000L397.500000,338.300000L397.600000,338.300000L397.700000,338.300000L397.800000,338.300000L398,338.300000L398.200000,338.300000L398.400000,338.300000L398.600000,338.300000L398.800000,338.300000L399,338.300000L399.200000,338.300000L399.400000,338.300000L406.200000,338.300000C448.800000,278.300000,518.100000,242.700000,592,242.700000C665.900000,242.700000,734.600000,278.400000,777.200000,338.300000L782.700000,338.300000L782.700000,291.300000L773.900000,291.300000L773.900000,318.700000C727.100000,260.500000,654.900000,228.200000,580.100000,232C522.700000,234.900000,469.300000,258.600000,429.200000,297.500000L429.200000,297.500000ZM418.200000,308.800000L421.500000,301.200000L422.700000,304C421.200000,305.500000,419.700000,307.200000,418.200000,308.800000Z" clip-rule="evenodd" fill="rgb(13,150,213)" fill-rule="evenodd" stroke="none" stroke-width="1"/><polygon id="exv9ck0vac2n9" points="71.500000,299.900000 81.100000,299.900000 97.800000,299.900000 97.800000,291.300000 62.700000,291.300000 62.700000,299.900000" clip-rule="evenodd" fill="rgb(49,56,59)" fill-rule="evenodd" stroke="none" stroke-width="1"/><path id="exv9ck0vac2n10" d="M48.100000,299.100000C44.500000,291.900000,37,289.800000,29.700000,289.800000C21.100000,289.900000,11.500000,293.800000,11.500000,303.500000C11.500000,314,20.300000,316.600000,29.900000,317.700000C36.100000,318.400000,40.800000,320.200000,40.800000,324.600000C40.800000,329.700000,35.600000,331.600000,30,331.600000C24.300000,331.600000,18.900000,329.300000,16.800000,324.200000L9.500000,328C13,336.600000,20.400000,339.500000,29.900000,339.500000C40.300000,339.500000,49.600000,335,49.600000,324.600000C49.600000,313.400000,40.500000,310.900000,30.700000,309.700000C25.100000,309,20.300000,307.900000,20.300000,303.800000C20.300000,300.300000,23.400000,297.600000,30,297.600000C35.100000,297.600000,39.500000,300.100000,41.100000,302.800000L48.100000,299.100000L48.100000,299.100000ZM299.400000,290.400000C283.200000,290.400000,275.300000,302.800000,275.300000,315.100000C275.300000,327.400000,282.900000,339.300000,299.400000,339.300000C315.900000,339.300000,323.300000,327.200000,323.400000,315.100000C323.600000,302.800000,315.500000,290.400000,299.400000,290.400000L299.400000,290.400000ZM299.400000,298.500000C310.500000,298.500000,314.900000,307.300000,314.700000,315.200000C314.600000,322.900000,310.400000,331.200000,299.400000,331.200000C288.300000,331.200000,284.200000,323,284,315.300000C283.800000,307.400000,288.400000,298.500000,299.400000,298.500000L299.400000,298.500000ZM262.600000,299.100000C259,291.900000,251.500000,289.800000,244.200000,289.800000C235.600000,289.900000,226,293.800000,226,303.500000C226,314,234.800000,316.600000,244.400000,317.700000C250.600000,318.400000,255.300000,320.200000,255.300000,324.600000C255.300000,329.700000,250.100000,331.600000,244.500000,331.600000C238.800000,331.600000,233.400000,329.300000,231.300000,324.200000L224,328C227.500000,336.600000,234.900000,339.500000,244.400000,339.500000C254.800000,339.500000,264.100000,335,264.100000,324.600000C264.100000,313.400000,255,310.900000,245.200000,309.700000C239.600000,309,234.800000,307.900000,234.800000,303.800000C234.800000,300.300000,237.900000,297.600000,244.500000,297.600000C249.600000,297.600000,254,300.100000,255.600000,302.800000L262.600000,299.100000L262.600000,299.100000ZM188.400000,290.400000C172.200000,290.400000,164.300000,302.800000,164.300000,315.100000C164.300000,327.400000,171.900000,339.300000,188.400000,339.300000C204.900000,339.300000,212.300000,327.200000,212.400000,315.100000C212.500000,302.800000,204.500000,290.400000,188.400000,290.400000L188.400000,290.400000ZM188.400000,298.500000C199.500000,298.500000,203.900000,307.300000,203.700000,315.200000C203.600000,322.900000,199.400000,331.200000,188.400000,331.200000C177.300000,331.200000,173.200000,323,173,315.300000C172.800000,307.400000,177.300000,298.500000,188.400000,298.500000L188.400000,298.500000ZM151.400000,297.200000C146.600000,292.400000,140.300000,290,134,290C117.500000,290,109.200000,302.200000,109.200000,315.400000C109.200000,327.700000,116.400000,339.300000,134,339.300000C142.200000,339.300000,148.100000,336.200000,152.700000,330.900000L152.700000,311.100000L132.600000,311.100000L132.600000,319L144.600000,319L144.600000,327.300000C140.900000,330.200000,137.700000,331.100000,134,331.100000C122.300000,331.100000,117.900000,323.100000,117.900000,315.400000C117.900000,305.800000,124,298.100000,134,298.100000C138.100000,298.100000,142.800000,299.800000,145.900000,302.800000L151.400000,297.200000L151.400000,297.200000ZM97.800000,329.600000L71.500000,329.600000L71.500000,319L96.900000,319L96.900000,310.800000L81.100000,310.800000L71.500000,310.800000L62.700000,310.800000L62.700000,338.300000L97.800000,338.300000L97.800000,329.600000Z" clip-rule="evenodd" fill="rgb(13,150,213)" fill-rule="evenodd" stroke="none" stroke-width="1"/><path id="exv9ck0vac2n11" d="M437.800000,338.300000L447.400000,338.300000L435,310.500000C432.800000,312.600000,430.600000,314.800000,428.500000,317C431.800000,324.800000,429.200000,319,437.800000,338.300000Z" clip-rule="evenodd" fill="rgb(49,56,59)" fill-rule="evenodd" stroke="none" stroke-width="1"/><polygon id="exv9ck0vac2n12" points="646,299.900000 666.300000,299.900000 672.300000,299.900000 672.300000,291.300000 637.200000,291.300000 637.200000,299.900000" clip-rule="evenodd" fill="rgb(49,56,59)" fill-rule="evenodd" stroke="none" stroke-width="1"/><path id="exv9ck0vac2n13" d="M722.800000,338.300000L732.400000,338.300000L711.400000,291.300000L701.800000,291.300000L680.800000,338.300000L690.400000,338.300000C698.400000,320.800000,697.500000,322.300000,706.700000,301.200000C716.200000,323.300000,714.600000,319.800000,722.800000,338.300000L722.800000,338.300000ZM385.200000,326.300000C382.100000,329.400000,377.500000,331.100000,373.400000,331.100000C361.800000,331.100000,357.300000,323,357.300000,315.200000C357.200000,307.400000,362.100000,298.900000,373.400000,298.900000C377.500000,298.900000,381.600000,300.300000,384.700000,303.300000L390.600000,297.600000C385.800000,292.800000,379.700000,290.400000,373.400000,290.400000C356.500000,290.400000,348.500000,302.900000,348.500000,315.100000C348.600000,327.300000,355.900000,339.300000,373.400000,339.300000C380.200000,339.300000,386.400000,337.100000,391.200000,332.300000L385.200000,326.300000L385.200000,326.300000ZM593.600000,318L607.100000,318C610.700000,318,615.900000,320.200000,615.900000,324.400000C615.900000,328.800000,610.700000,330,607.100000,330L593.600000,330L593.600000,318L593.600000,318ZM593.600000,299.300000L607.100000,299.300000C612.700000,299.300000,614.500000,302.900000,614.500000,305.100000C614.500000,307.800000,612.700000,310.200000,607.100000,310.200000L593.600000,310.200000L593.600000,299.300000L593.600000,299.300000ZM607.200000,291.300000C599.800000,291.300000,592.300000,291.300000,585,291.300000L585,338.300000C592.400000,338.300000,599.800000,338.300000,607.200000,338.300000C616.900000,338.300000,624.800000,335,624.800000,324.500000C624.800000,321.600000,622.800000,315.700000,617.300000,314.100000C621.700000,312.200000,623.400000,308.700000,623.400000,305C623.300000,295.500000,616.400000,291.300000,607.200000,291.300000L607.200000,291.300000ZM541.400000,318L555,318C558.600000,318,563.800000,320.200000,563.800000,324.400000C563.800000,328.800000,558.600000,330,555,330L541.500000,330L541.500000,318L541.400000,318ZM541.400000,299.300000L555,299.300000C560.600000,299.300000,562.400000,302.900000,562.400000,305.100000C562.400000,307.800000,560.600000,310.200000,555,310.200000L541.500000,310.200000L541.500000,299.300000L541.400000,299.300000ZM555,291.300000C547.600000,291.300000,540.100000,291.300000,532.800000,291.300000L532.800000,338.300000C540.200000,338.300000,547.600000,338.300000,555,338.300000C564.700000,338.300000,572.600000,335,572.600000,324.500000C572.600000,321.600000,570.600000,315.700000,565.100000,314.100000C569.500000,312.200000,571.200000,308.700000,571.200000,305C571.100000,295.500000,564.200000,291.300000,555,291.300000L555,291.300000ZM518.300000,338.300000L518.300000,291.300000L509.500000,291.300000L509.500000,338.300000L518.300000,338.300000L518.300000,338.300000ZM499.400000,337.700000L485.200000,321.700000C494.100000,319.900000,497.100000,313.400000,497.100000,306.900000C497.100000,298.800000,491.300000,291.400000,480.200000,291.300000C472.800000,291.400000,465.300000,291.300000,457.900000,291.300000L457.900000,338.300000L466.700000,338.300000L466.700000,322.600000L475.200000,322.600000L488.900000,338.300000L499.400000,338.300000L499.400000,337.700000L499.400000,337.700000ZM480.200000,299.500000C485.800000,299.500000,488.200000,303.300000,488.200000,307C488.200000,310.800000,485.800000,314.500000,480.200000,314.500000L466.700000,314.500000L466.700000,299.400000L480.200000,299.400000L480.200000,299.500000ZM672.300000,329.600000L646,329.600000L646,319L671.400000,319L671.400000,310.800000L666.300000,310.800000L646,310.800000L637.200000,310.800000L637.200000,338.300000L672.300000,338.300000L672.300000,329.600000Z" clip-rule="evenodd" fill="rgb(13,150,213)" fill-rule="evenodd" stroke="none" stroke-width="1"/><path id="exv9ck0vac2n14" d="M743.600000,306.200000L743.600000,338.300000L752.400000,338.300000L752.400000,314.600000C749.500000,311.700000,746.600000,308.900000,743.600000,306.200000Z" clip-rule="evenodd" fill="rgb(49,56,59)" fill-rule="evenodd" stroke="none" stroke-width="1"/></g></g><script><![CDATA[!function(t,n){"object"==typeof exports&&"undefined"!=typeof module?module.exports=n():"function"==typeof define&&define.amd?define(n):(t=t||self).__SVGATOR_PLAYER__=n()}(this,(function(){"use strict";function t(n){return(t="function"==typeof Symbol&&"symbol"==typeof Symbol.iterator?function(t){return typeof t}:function(t){return t&&"function"==typeof Symbol&&t.constructor===Symbol&&t!==Symbol.prototype?"symbol":typeof t})(n)}function n(t,n){if(!(t instanceof n))throw new TypeError("Cannot call a class as a function")}function r(t,n){for(var r=0;r<n.length;r++){var e=n[r];e.enumerable=e.enumerable||!1,e.configurable=!0,"value"in e&&(e.writable=!0),Object.defineProperty(t,e.key,e)}}function e(t,n,e){return n&&r(t.prototype,n),e&&r(t,e),t}function i(t){return(i=Object.setPrototypeOf?Object.getPrototypeOf:function(t){return t.__proto__||Object.getPrototypeOf(t)})(t)}function o(t,n){return(o=Object.setPrototypeOf||function(t,n){return t.__proto__=n,t})(t,n)}function u(t,n){return!n||"object"!=typeof n&&"function"!=typeof n?function(t){if(void 0===t)throw new ReferenceError("this hasn't been initialised - super() hasn't been called");return t}(t):n}function a(t){var n=function(){if("undefined"==typeof Reflect||!Reflect.construct)return!1;if(Reflect.construct.sham)return!1;if("function"==typeof Proxy)return!0;try{return Date.prototype.toString.call(Reflect.construct(Date,[],(function(){}))),!0}catch(t){return!1}}();return function(){var r,e=i(t);if(n){var o=i(this).constructor;r=Reflect.construct(e,arguments,o)}else r=e.apply(this,arguments);return u(this,r)}}function l(t,n,r){return(l="undefined"!=typeof Reflect&&Reflect.get?Reflect.get:function(t,n,r){var e=function(t,n){for(;!Object.prototype.hasOwnProperty.call(t,n)&&null!==(t=i(t)););return t}(t,n);if(e){var o=Object.getOwnPropertyDescriptor(e,n);return o.get?o.get.call(r):o.value}})(t,n,r||t)}var f=Math.abs;function s(t){return t}function c(t,n,r){var e=1-r;return 3*r*e*(t*e+n*r)+r*r*r}function h(){var t=arguments.length>0&&void 0!==arguments[0]?arguments[0]:0,n=arguments.length>1&&void 0!==arguments[1]?arguments[1]:0,r=arguments.length>2&&void 0!==arguments[2]?arguments[2]:1,e=arguments.length>3&&void 0!==arguments[3]?arguments[3]:1;return t<0||t>1||r<0||r>1?null:f(t-n)<=1e-5&&f(r-e)<=1e-5?s:function(i){if(i<=0)return t>0?i*n/t:0===n&&r>0?i*e/r:0;if(i>=1)return r<1?1+(i-1)*(e-1)/(r-1):1===r&&t<1?1+(i-1)*(n-1)/(t-1):1;for(var o,u=0,a=1;u<a;){var l=c(t,r,o=(u+a)/2);if(f(i-l)<1e-5)break;l<i?u=o:a=o}return c(n,e,o)}}function v(){return 1}function y(t){return 1===t?1:0}function d(){var t=arguments.length>0&&void 0!==arguments[0]?arguments[0]:1,n=arguments.length>1&&void 0!==arguments[1]?arguments[1]:0;if(1===t){if(0===n)return y;if(1===n)return v}var r=1/t;return function(t){return t>=1?1:(t+=n*r)-t%r}}function g(t){var n=arguments.length>1&&void 0!==arguments[1]?arguments[1]:2;if(Number.isInteger(t))return t;var r=Math.pow(10,n);return Math.round(t*r)/r}var p=Math.PI/180;function m(t,n,r){return t>=.5?r:n}function b(t,n,r){return 0===t||n===r?n:t*(r-n)+n}function w(t,n,r){var e=b(t,n,r);return e<=0?0:e}function k(t,n,r){return 0===t?n:1===t?r:{x:b(t,n.x,r.x),y:b(t,n.y,r.y)}}function x(t,n,r){var e=function(t,n,r){return Math.round(b(t,n,r))}(t,n,r);return e<=0?0:e>=255?255:e}function A(t,n,r){return 0===t?n:1===t?r:{r:x(t,n.r,r.r),g:x(t,n.g,r.g),b:x(t,n.b,r.b),a:b(t,null==n.a?1:n.a,null==r.a?1:r.a)}}function _(t,n,r){if(0===t)return n;if(1===t)return r;var e=n.length;if(e!==r.length)return m(t,n,r);for(var i=[],o=0;o<e;o++)i.push(A(t,n[o],r[o]));return i}function S(t,n){for(var r=[],e=0;e<t;e++)r.push(n);return r}function O(t,n){if(--n<=0)return t;var r=(t=Object.assign([],t)).length;do{for(var e=0;e<r;e++)t.push(t[e])}while(--n>0);return t}var M,j=function(){function t(r){n(this,t),this.list=r,this.length=r.length}return e(t,[{key:"setAttribute",value:function(t,n){for(var r=this.list,e=0;e<this.length;e++)r[e].setAttribute(t,n)}},{key:"removeAttribute",value:function(t){for(var n=this.list,r=0;r<this.length;r++)n[r].removeAttribute(t)}},{key:"style",value:function(t,n){for(var r=this.list,e=0;e<this.length;e++)r[e].style[t]=n}}]),t}(),F=/-./g,P=function(t,n){return n.toUpperCase()};function q(t){return"function"==typeof t?t:m}function B(t){return t?"function"==typeof t?t:Array.isArray(t)?function(t){var n=arguments.length>1&&void 0!==arguments[1]?arguments[1]:s;if(!Array.isArray(t))return n;switch(t.length){case 1:return d(t[0])||n;case 2:return d(t[0],t[1])||n;case 4:return h(t[0],t[1],t[2],t[3])||n}return n}(t,null):function(t,n){var r=arguments.length>2&&void 0!==arguments[2]?arguments[2]:s;switch(t){case"linear":return s;case"steps":return d(n.steps||1,n.jump||0)||r;case"bezier":case"cubic-bezier":return h(n.x1||0,n.y1||0,n.x2||0,n.y2||0)||r}return r}(t.type,t.value,null):null}function I(t,n,r){var e=arguments.length>3&&void 0!==arguments[3]&&arguments[3],i=n.length-1;if(t<=n[0].t)return e?[0,0,n[0].v]:n[0].v;if(t>=n[i].t)return e?[i,1,n[i].v]:n[i].v;var o,u=n[0],a=null;for(o=1;o<=i;o++){if(!(t>n[o].t)){a=n[o];break}u=n[o]}return null==a?e?[i,1,n[i].v]:n[i].v:u.t===a.t?e?[o,1,a.v]:a.v:(t=(t-u.t)/(a.t-u.t),u.e&&(t=u.e(t)),e?[o,t,r(t,u.v,a.v)]:r(t,u.v,a.v))}function R(t,n){var r=arguments.length>2&&void 0!==arguments[2]?arguments[2]:null;return t&&t.length?"function"!=typeof n?null:("function"!=typeof r&&(r=null),function(e){var i=I(e,t,n);return null!=i&&r&&(i=r(i)),i}):null}function E(t,n){return t.t-n.t}function T(n,r,e,i,o){var u,a="@"===e[0],l="#"===e[0],f=M[e],s=m;switch(a?(u=e.substr(1),e=u.replace(F,P)):l&&(e=e.substr(1)),t(f)){case"function":if(s=f(i,o,I,B,e,a,r,n),l)return s;break;case"string":s=R(i,q(f));break;case"object":if((s=R(i,q(f.i),f.f))&&"function"==typeof f.u)return f.u(r,s,e,a,n)}return s?function(t,n,r){var e=arguments.length>3&&void 0!==arguments[3]&&arguments[3];if(e)return t instanceof j?function(e){return t.style(n,r(e))}:function(e){return t.style[n]=r(e)};if(Array.isArray(n)){var i=n.length;return function(e){var o=r(e);if(null==o)for(var u=0;u<i;u++)t[u].removeAttribute(n);else for(var a=0;a<i;a++)t[a].setAttribute(n,o)}}return function(e){var i=r(e);null==i?t.removeAttribute(n):t.setAttribute(n,i)}}(r,e,s,a):null}function z(n,r,e,i){if(!i||"object"!==t(i))return null;var o=null,u=null;return Array.isArray(i)?u=function(t){if(!t||!t.length)return null;for(var n=0;n<t.length;n++)t[n].e&&(t[n].e=B(t[n].e));return t.sort(E)}(i):(u=i.keys,o=i.data||null),u?T(n,r,e,u,o):null}function C(t,n,r){if(!r)return null;var e=[];for(var i in r)if(r.hasOwnProperty(i)){var o=z(t,n,i,r[i]);o&&e.push(o)}return e.length?e:null}function D(t,n){if(!n.duration||n.duration<0)return null;var r=function(t,n){if(!n)return null;var r=[];if(Array.isArray(n))for(var e=n.length,i=0;i<e;i++){var o=n[i];if(2===o.length){var u=null;if("string"==typeof o[0])u=t.getElementById(o[0]);else if(Array.isArray(o[0])){u=[];for(var a=0;a<o[0].length;a++)if("string"==typeof o[0][a]){var l=t.getElementById(o[0][a]);l&&u.push(l)}u=u.length?1===u.length?u[0]:new j(u):null}if(u){var f=C(t,u,o[1]);f&&(r=r.concat(f))}}}else for(var s in n)if(n.hasOwnProperty(s)){var c=t.getElementById(s);if(c){var h=C(t,c,n[s]);h&&(r=r.concat(h))}}return r.length?r:null}(t,n.elements);return r?function(t,n){var r=arguments.length>2&&void 0!==arguments[2]?arguments[2]:1/0,e=arguments.length>3&&void 0!==arguments[3]?arguments[3]:1,i=arguments.length>4&&void 0!==arguments[4]&&arguments[4],o=arguments.length>5&&void 0!==arguments[5]?arguments[5]:1,u=t.length,a=e>0?n:0;i&&r%2==0&&(a=n-a);var l=null;return function(f,s){var c=f%n,h=1+(f-c)/n;s*=e,i&&h%2==0&&(s=-s);var v=!1;if(h>r)c=a,v=!0,-1===o&&(c=e>0?0:n);else if(s<0&&(c=n-c),c===l)return!1;l=c;for(var y=0;y<u;y++)t[y](c);return v}}(r,n.duration,n.iterations||1/0,n.direction||1,!!n.alternate,n.fill||1):null}function N(t,n){if(M=n,!t||!t.root||!Array.isArray(t.animations))return null;for(var r=document.getElementsByTagName("svg"),e=!1,i=0;i<r.length;i++)if(r[i].id===t.root&&!r[i].svgatorAnimation){(e=r[i]).svgatorAnimation=!0;break}if(!e)return null;var o=t.animations.map((function(t){return D(e,t)})).filter((function(t){return!!t}));return o.length?{element:e,animations:o,animationSettings:t.animationSettings,options:t.options||void 0}:null}var L=function(){function t(r,e){var i=arguments.length>2&&void 0!==arguments[2]?arguments[2]:{};n(this,t),this._id=0,this._running=!1,this._rollingBack=!1,this._animations=r,this.duration=e.duration,this.alternate=e.alternate,this.fill=e.fill,this.iterations=e.iterations,this.direction=i.direction||1,this.speed=i.speed||1,this.fps=i.fps||100,this.offset=i.offset||0,this.rollbackStartOffset=0}return e(t,[{key:"_rollback",value:function(){var t=this,n=1/0,r=null;this.rollbackStartOffset=this.offset,this._rollingBack||(this._rollingBack=!0,this._running=!0);this._id=window.requestAnimationFrame((function e(i){if(t._rollingBack){null==r&&(r=i);var o=i-r,u=t.rollbackStartOffset-o,a=Math.round(u*t.speed);if(a>t.duration&&n!=1/0){var l=!!t.alternate&&a/t.duration%2>1,f=a%t.duration;a=(f+=l?t.duration:0)||t.duration}var s=t.fps?1e3/t.fps:0,c=Math.max(0,a);if(c<n-s){t.offset=c,n=c;for(var h=t._animations,v=h.length,y=0;y<v;y++)h[y](c,t.direction)}var d=!1;if(t.iterations>0&&-1===t.fill){var g=t.iterations*t.duration,p=g==a;a=p?0:a,t.offset=p?0:t.offset,d=a>g}a>0&&t.offset>=a&&!d?t._id=window.requestAnimationFrame(e):t.stop()}}))}},{key:"_start",value:function(){var t=this,n=arguments.length>0&&void 0!==arguments[0]?arguments[0]:0,r=-1/0,e=null,i={},o=function o(u){t._running=!0,null==e&&(e=u);var a=Math.round((u-e+n)*t.speed),l=t.fps?1e3/t.fps:0;if(a>r+l&&!t._rollingBack){t.offset=a,r=a;for(var f=t._animations,s=f.length,c=0,h=0;h<s;h++)i[h]?c++:(i[h]=f[h](a,t.direction),i[h]&&c++);if(c===s)return void t._stop()}t._id=window.requestAnimationFrame(o)};this._id=window.requestAnimationFrame(o)}},{key:"_stop",value:function(){this._id&&window.cancelAnimationFrame(this._id),this._running=!1,this._rollingBack=!1}},{key:"play",value:function(){!this._rollingBack&&this._running||(this._rollingBack=!1,this.rollbackStartOffset>this.duration&&(this.offset=this.rollbackStartOffset-(this.rollbackStartOffset-this.offset)%this.duration,this.rollbackStartOffset=0),this._start(this.offset))}},{key:"stop",value:function(){this._stop(),this.offset=0,this.rollbackStartOffset=0;var t=this.direction,n=this._animations;window.requestAnimationFrame((function(){for(var r=0;r<n.length;r++)n[r](0,t)}))}},{key:"reachedToEnd",value:function(){return this.iterations>0&&this.offset>=this.iterations*this.duration}},{key:"restart",value:function(){this._stop(),this.offset=0,this._start()}},{key:"pause",value:function(){this._stop()}},{key:"reverse",value:function(){this.direction=-this.direction}}],[{key:"build",value:function(n,r){return(n=N(n,r))?{el:n.element,options:n.options||{},player:new t(n.animations,n.animationSettings,n.options)}:null}}]),t}();!function(){for(var t=0,n=["ms","moz","webkit","o"],r=0;r<n.length&&!window.requestAnimationFrame;++r)window.requestAnimationFrame=window[n[r]+"RequestAnimationFrame"],window.cancelAnimationFrame=window[n[r]+"CancelAnimationFrame"]||window[n[r]+"CancelRequestAnimationFrame"];window.requestAnimationFrame||(window.requestAnimationFrame=function(n){var r=Date.now(),e=Math.max(0,16-(r-t)),i=window.setTimeout((function(){n(r+e)}),e);return t=r+e,i},window.cancelAnimationFrame=window.clearTimeout)}();var V=/\.0+$/g;function $(t){return Number.isInteger(t)?t+"":t.toFixed(6).replace(V,"")}function G(t){var n=arguments.length>1&&void 0!==arguments[1]?arguments[1]:" ";return t&&t.length?t.map($).join(n):""}function H(t){return t?null==t.a||t.a>=1?"rgb("+t.r+","+t.g+","+t.b+")":"rgba("+t.r+","+t.g+","+t.b+","+t.a+")":"transparent"}var Q={f:null,i:function(t,n,r){return 0===t?n:1===t?r:{x:w(t,n.x,r.x),y:w(t,n.y,r.y)}},u:function(t,n){return function(r){var e=n(r);t.setAttribute("rx",$(e.x)),t.setAttribute("ry",$(e.y))}}},U={f:null,i:function(t,n,r){return 0===t?n:1===t?r:{width:w(t,n.width,r.width),height:w(t,n.height,r.height)}},u:function(t,n){return function(r){var e=n(r);t.setAttribute("width",$(e.width)),t.setAttribute("height",$(e.height))}}},Y=Math.sin,Z=Math.cos,J=Math.acos,K=Math.asin,W=Math.tan,X=Math.atan2,tt=Math.PI/180,nt=180/Math.PI,rt=Math.sqrt,et=function(){function t(){var r=arguments.length>0&&void 0!==arguments[0]?arguments[0]:1,e=arguments.length>1&&void 0!==arguments[1]?arguments[1]:0,i=arguments.length>2&&void 0!==arguments[2]?arguments[2]:0,o=arguments.length>3&&void 0!==arguments[3]?arguments[3]:1,u=arguments.length>4&&void 0!==arguments[4]?arguments[4]:0,a=arguments.length>5&&void 0!==arguments[5]?arguments[5]:0;n(this,t),this.m=[r,e,i,o,u,a],this.i=null,this.w=null,this.s=null}return e(t,[{key:"point",value:function(t,n){var r=this.m;return{x:r[0]*t+r[2]*n+r[4],y:r[1]*t+r[3]*n+r[5]}}},{key:"translateSelf",value:function(){var t=arguments.length>0&&void 0!==arguments[0]?arguments[0]:0,n=arguments.length>1&&void 0!==arguments[1]?arguments[1]:0;if(!t&&!n)return this;var r=this.m;return r[4]+=r[0]*t+r[2]*n,r[5]+=r[1]*t+r[3]*n,this.w=this.s=this.i=null,this}},{key:"rotateSelf",value:function(){var t=arguments.length>0&&void 0!==arguments[0]?arguments[0]:0;if(t%=360){var n=Y(t*=tt),r=Z(t),e=this.m,i=e[0],o=e[1];e[0]=i*r+e[2]*n,e[1]=o*r+e[3]*n,e[2]=e[2]*r-i*n,e[3]=e[3]*r-o*n,this.w=this.s=this.i=null}return this}},{key:"scaleSelf",value:function(){var t=arguments.length>0&&void 0!==arguments[0]?arguments[0]:1,n=arguments.length>1&&void 0!==arguments[1]?arguments[1]:1;if(1!==t||1!==n){var r=this.m;r[0]*=t,r[1]*=t,r[2]*=n,r[3]*=n,this.w=this.s=this.i=null}return this}},{key:"skewSelf",value:function(t,n){if(n%=360,(t%=360)||n){var r=this.m,e=r[0],i=r[1],o=r[2],u=r[3];t&&(t=W(t*tt),r[2]+=e*t,r[3]+=i*t),n&&(n=W(n*tt),r[0]+=o*n,r[1]+=u*n),this.w=this.s=this.i=null}return this}},{key:"resetSelf",value:function(){var t=arguments.length>0&&void 0!==arguments[0]?arguments[0]:1,n=arguments.length>1&&void 0!==arguments[1]?arguments[1]:0,r=arguments.length>2&&void 0!==arguments[2]?arguments[2]:0,e=arguments.length>3&&void 0!==arguments[3]?arguments[3]:1,i=arguments.length>4&&void 0!==arguments[4]?arguments[4]:0,o=arguments.length>5&&void 0!==arguments[5]?arguments[5]:0,u=this.m;return u[0]=t,u[1]=n,u[2]=r,u[3]=e,u[4]=i,u[5]=o,this.w=this.s=this.i=null,this}},{key:"recomposeSelf",value:function(){var t=arguments.length>0&&void 0!==arguments[0]?arguments[0]:null,n=arguments.length>1&&void 0!==arguments[1]?arguments[1]:null,r=arguments.length>2&&void 0!==arguments[2]?arguments[2]:null,e=arguments.length>3&&void 0!==arguments[3]?arguments[3]:null,i=arguments.length>4&&void 0!==arguments[4]?arguments[4]:null;return this.isIdentity||this.resetSelf(),t&&(t.x||t.y)&&this.translateSelf(t.x,t.y),n&&this.rotateSelf(n),r&&(r.x&&this.skewSelf(r.x,0),r.y&&this.skewSelf(0,r.y)),!e||1===e.x&&1===e.y||this.scaleSelf(e.x,e.y),i&&(i.x||i.y)&&this.translateSelf(i.x,i.y),this}},{key:"decompose",value:function(){var t=arguments.length>0&&void 0!==arguments[0]?arguments[0]:0,n=arguments.length>1&&void 0!==arguments[1]?arguments[1]:0,r=this.m,e=r[0]*r[0]+r[1]*r[1],i=[[r[0],r[1]],[r[2],r[3]]],o=rt(e);if(0===o)return{origin:{x:r[4],y:r[5]},translate:{x:t,y:n},scale:{x:0,y:0},skew:{x:0,y:0},rotate:0};i[0][0]/=o,i[0][1]/=o;var u=r[0]*r[3]-r[1]*r[2]<0;u&&(o=-o);var a=i[0][0]*i[1][0]+i[0][1]*i[1][1];i[1][0]-=i[0][0]*a,i[1][1]-=i[0][1]*a;var l=rt(i[1][0]*i[1][0]+i[1][1]*i[1][1]);if(0===l)return{origin:{x:r[4],y:r[5]},translate:{x:t,y:n},scale:{x:o,y:0},skew:{x:0,y:0},rotate:0};i[1][0]/=l,i[1][1]/=l,a/=l;var f=0;return i[1][1]<0?(f=J(i[1][1])*nt,i[0][1]<0&&(f=360-f)):f=K(i[0][1])*nt,u&&(f=-f),a=X(a,rt(i[0][0]*i[0][0]+i[0][1]*i[0][1]))*nt,{origin:{x:r[4],y:r[5]},translate:{x:t,y:n},scale:{x:o,y:l},skew:{x:a,y:0},rotate:f}}},{key:"toString",value:function(){return null===this.s&&(this.s="matrix("+this.m.map(ot).join(" ")+")"),this.s}},{key:"determinant",get:function(){var t=this.m;return t[0]*t[3]-t[1]*t[2]}},{key:"isIdentity",get:function(){if(null===this.i){var t=this.m;this.i=1===t[0]&&0===t[1]&&0===t[2]&&1===t[3]&&0===t[4]&&0===t[5]}return this.i}}]),t}(),it=/\.0+$/;function ot(t){return Number.isInteger(t)?t:t.toFixed(14).replace(it,"")}Object.freeze({M:2,L:2,Z:0,H:1,V:1,C:6,Q:4,T:2,S:4,A:7});function ut(t,n,r){return t+(n-t)*r}function at(t,n,r){var e=arguments.length>3&&void 0!==arguments[3]&&arguments[3],i={x:ut(t.x,n.x,r),y:ut(t.y,n.y,r)};return e&&(i.a=lt(t,n)),i}function lt(t,n){return Math.atan2(n.y-t.y,n.x-t.x)}function ft(t,n,r,e){var i=1-e;return i*i*t+2*i*e*n+e*e*r}function st(t,n,r,e){return 2*(1-e)*(n-t)+2*e*(r-n)}function ct(t,n,r,e){var i=arguments.length>4&&void 0!==arguments[4]&&arguments[4],o={x:ft(t.x,n.x,r.x,e),y:ft(t.y,n.y,r.y,e)};return i&&(o.a=ht(t,n,r,e)),o}function ht(t,n,r,e){return Math.atan2(st(t.y,n.y,r.y,e),st(t.x,n.x,r.x,e))}function vt(t,n,r,e,i){var o=i*i;return i*o*(e-t+3*(n-r))+3*o*(t+r-2*n)+3*i*(n-t)+t}function yt(t,n,r,e,i){var o=1-i;return 3*(o*o*(n-t)+2*o*i*(r-n)+i*i*(e-r))}function dt(t,n,r,e,i){var o=arguments.length>5&&void 0!==arguments[5]&&arguments[5],u={x:vt(t.x,n.x,r.x,e.x,i),y:vt(t.y,n.y,r.y,e.y,i)};return o&&(u.a=gt(t,n,r,e,i)),u}function gt(t,n,r,e,i){return Math.atan2(yt(t.y,n.y,r.y,e.y,i),yt(t.x,n.x,r.x,e.x,i))}function pt(t,n,r){var e=arguments.length>3&&void 0!==arguments[3]&&arguments[3];if(bt(n)){if(wt(r))return ct(n,r.start,r,t,e)}else if(bt(r)){if(n.end)return ct(n,n.end,r,t,e)}else{if(n.end)return r.start?dt(n,n.end,r.start,r,t,e):ct(n,n.end,r,t,e);if(r.start)return ct(n,r.start,r,t,e)}return at(n,r,t,e)}function mt(t,n,r){var e=pt(t,n,r,!0);return e.a=function(t){var n=arguments.length>1&&void 0!==arguments[1]&&arguments[1];return n?t+Math.PI:t}(e.a)/p,e}function bt(t){return!t.type||"corner"===t.type}function wt(t){return null!=t.start&&!bt(t)}var kt=new et;var xt={f:$,i:b},At={f:$,i:function(t,n,r){var e=b(t,n,r);return e<=0?0:e>=1?1:e}};function _t(t,n,r,e,i,o,u,a){return n=function(t,n,r){for(var e,i,o,u=t.length-1,a={},l=0;l<=u;l++)(e=t[l]).e&&(e.e=n(e.e)),e.v&&"g"===(i=e.v).t&&i.r&&(o=r.getElementById(i.r))&&(a[i.r]=o.querySelectorAll("stop"));return a}(t,e,a),function(e){var i,o=r(e,t,St);return o?"c"===o.t?H(o.v):"g"===o.t?(n[o.r]&&function(t,n){for(var r=0,e=t.length;r<e;r++)t[r].setAttribute("stop-color",H(n[r]))}(n[o.r],o.v),(i=o.r)?"url(#"+i+")":"none"):"none":"none"}}function St(t,n,r){if(0===t)return n;if(1===t)return r;if(n&&r){var e=n.t;if(e===r.t)switch(n.t){case"c":return{t:e,v:A(t,n.v,r.v)};case"g":if(n.r===r.r)return{t:e,v:_(t,n.v,r.v),r:n.r}}}return m(t,n,r)}var Ot={fill:_t,"fill-opacity":At,stroke:_t,"stroke-opacity":At,"stroke-width":xt,"stroke-dashoffset":{f:$,i:b},"stroke-dasharray":{f:function(t){var n=arguments.length>1&&void 0!==arguments[1]?arguments[1]:" ";return t&&t.length>0&&(t=t.map((function(t){return Math.floor(1e4*t)/1e4}))),G(t,n)},i:function(t,n,r){var e,i,o,u=n.length,a=r.length;if(u!==a)if(0===u)n=S(u=a,0);else if(0===a)a=u,r=S(u,0);else{var l=(o=(e=u)*(i=a)/function(t,n){for(var r;n;)r=n,n=t%n,t=r;return t||1}(e,i))<0?-o:o;n=O(n,Math.floor(l/u)),r=O(r,Math.floor(l/a)),u=a=l}for(var f=[],s=0;s<u;s++)f.push(g(w(t,n[s],r[s]),6));return f}},opacity:At,transform:function(n,r,e,i){if(!(n=function(n,r){if(!n||"object"!==t(n))return null;var e=!1;for(var i in n)n.hasOwnProperty(i)&&(n[i]&&n[i].length?(n[i].forEach((function(t){t.e&&(t.e=r(t.e))})),e=!0):delete n[i]);return e?n:null}(n,i)))return null;var o=function(t,i,o){var u=arguments.length>3&&void 0!==arguments[3]?arguments[3]:null;return n[t]?e(i,n[t],o):r&&r[t]?r[t]:u};return r&&r.a&&n.o?function(t){var r=e(t,n.o,mt);return kt.recomposeSelf(r,o("r",t,b,0)+r.a,o("k",t,k),o("s",t,k),o("t",t,k)).toString()}:function(t){return kt.recomposeSelf(o("o",t,pt,null),o("r",t,b,0),o("k",t,k),o("s",t,k),o("t",t,k)).toString()}},r:xt,"#size":U,"#radius":Q,_:function(t,n){if(Array.isArray(t))for(var r=0;r<t.length;r++)this[t[r]]=n;else this[t]=n}};return function(t){!function(t,n){if("function"!=typeof n&&null!==n)throw new TypeError("Super expression must either be null or a function");t.prototype=Object.create(n&&n.prototype,{constructor:{value:t,writable:!0,configurable:!0}}),n&&o(t,n)}(u,t);var r=a(u);function u(){return n(this,u),r.apply(this,arguments)}return e(u,null,[{key:"build",value:function(t){var n=l(i(u),"build",this).call(this,t,Ot),r=(n.el,n.options,n.player);return function(t){t.play()}(r),r}}]),u}(L)}));
__SVGATOR_PLAYER__.build({"root":"exv9ck0vac2n1","animations":[{"duration":3000,"direction":1,"iterations":1,"fill":1,"alternate":false,"elements":{"exv9ck0vac2n3":{"opacity":[{"t":900,"v":0},{"t":1300,"v":1}]},"exv9ck0vac2n5":{"transform":{"data":{"o":{"x":173.24,"y":372.4999908447269,"type":"corner"},"t":{"x":-80.25000190734863,"y":-295.59999084472656}},"keys":{"s":[{"t":400,"v":{"x":1.1,"y":1}},{"t":600,"v":{"x":0,"y":1}}]}}},"exv9ck0vac2n6":{"transform":{"data":{"o":{"x":612.9419194073487,"y":372.44999084472704,"type":"corner"},"t":{"x":-80.25000190734863,"y":-295.59999084472656}},"keys":{"s":[{"t":400,"v":{"x":1.2,"y":1}},{"t":600,"v":{"x":0,"y":1}}]}}},"exv9ck0vac2n7":{"transform":{"data":{"t":{"x":-396.1000061035156,"y":-285.5992736816406}},"keys":{"o":[{"t":1500,"v":{"x":396.1000061035156,"y":340.6,"type":"corner"}},{"t":1800,"v":{"x":396.1000061035156,"y":285.5992736816406,"type":"corner"}}]}},"opacity":[{"t":1500,"v":0},{"t":1800,"v":1}]}}}],"options":{"start":"load","hover":"freeze","click":"freeze","scroll":25,"exportedIds":"unique","title":"SEGOSO_logo"},"animationSettings":{"duration":3000,"direction":1,"iterations":1,"fill":1,"alternate":false}})]]></script></svg>