<svg xmlns="http://www.w3.org/2000/svg" viewBox="0 0 8225 329" width="8225" height="329"><path d="M70.939697 51.213203l205.48523 205.485231c4.10122 4.10122 4.10122 10.748023 0 14.849242-4.101219 4.10122-10.748022 4.10122-14.849242 0L56.090455 66.062446c-4.10122-4.10122-4.10122-10.748023 0-14.849243 4.17193-4.030508 10.818733-4.030508 14.849242 0z" fill="#000000" stroke="#000000" stroke-width="18" stroke-miterlimit="10"/><path d="M56.465844 254.312943l205.48523-205.48523c4.10122-4.10122 10.748024-4.10122 14.849243 0 4.10122 4.10122 4.10122 10.748023 0 14.849242l-205.48523 205.48523c-4.10122 4.10122-10.748024 4.10122-14.849243 0-4.030509-4.17193-4.030509-10.818733 0-14.849242z" fill="#000000" stroke="#000000" stroke-width="18" stroke-miterlimit="10"/><path d="M153.45 149.29c3.211-2.333 7.08-3.59 11.05-3.59 3.97 0 7.839 1.257 11.05 3.59 3.212 2.334 5.603 5.625 6.83 9.4 1.227 3.776 1.227 7.844 0 11.62-1.227 3.775-3.618 7.066-6.83 9.4-3.211 2.333-7.08 3.59-11.05 3.59-3.97 0-7.839-1.257-11.05-3.59-3.212-2.334-5.603-5.625-6.83-9.4-1.227-3.776-1.227-7.844 0-11.62 1.227-3.775 3.618-7.066 6.83-9.4M399.939697 51.213203l205.48523 205.485231c4.10122 4.10122 4.10122 10.748023 0 14.849242-4.101219 4.10122-10.748022 4.10122-14.849242 0l-205.48523-205.48523c-4.10122-4.10122-4.10122-10.748023 0-14.849243 4.17193-4.030508 10.818733-4.030508 14.849242 0z" fill="#000000" stroke="#000000" stroke-width="18" stroke-miterlimit="10"/><path d="M385.465844 254.312943l205.48523-205.48523c4.10122-4.10122 10.748024-4.10122 14.849243 0 4.10122 4.10122 4.10122 10.748023 0 14.849242l-205.48523 205.48523c-4.10122 4.10122-10.748024 4.10122-14.849243 0-4.030509-4.17193-4.030509-10.818733 0-14.849242z" fill="#000000" stroke="#000000" stroke-width="18" stroke-miterlimit="10"/><path d="M482.45 149.29c3.211-2.333 7.08-3.59 11.05-3.59 3.97 0 7.839 1.257 11.05 3.59 3.212 2.334 5.603 5.625 6.83 9.4 1.227 3.776 1.227 7.844 0 11.62-1.227 3.775-3.618 7.066-6.83 9.4-3.211 2.333-7.08 3.59-11.05 3.59-3.97 0-7.839-1.257-11.05-3.59-3.212-2.334-5.603-5.625-6.83-9.4-1.227-3.776-1.227-7.844 0-11.62 1.227-3.775 3.618-7.066 6.83-9.4M677.260767 10.848471l290.599897.245426c5.799998.004899 10.496027 4.708866 10.491128 10.508864-.004898 5.799998-4.708866 10.496027-10.508864 10.491129l-290.599896-.245427c-5.799998-.004898-10.496027-4.708866-10.491129-10.508864.104899-5.799913 4.808867-10.495942 10.508864-10.491128zM677.270864 294.048199l290.599896-.245427c5.799998-.004898 10.503966 4.69113 10.508864 10.491129.004899 5.799998-4.69113 10.503965-10.491128 10.508864l-290.599896.245426c-5.799998.004899-10.503966-4.69113-10.508865-10.491128.095102-5.800083 4.791131-10.50405 10.491129-10.508864zM749.916 153.995c24.195-.003 48.389-.004 72.584-.004h72.572c24.195 0 48.389.001 72.584.004 5.797.002 10.494 4.701 10.496 10.499.001 5.798-4.694 10.497-10.489 10.501-48.382.004-96.767.008-145.151.01-48.384.003-96.771.004-145.156.004-5.798 0-10.497-4.696-10.5-10.493.096-5.796 4.788-10.494 10.481-10.498-.001-.005-.001-.009 0-.013 24.192-.004 48.385-.008 72.579-.01M1006.800722 11.279302l290.589851 2.428583c5.799798.048471 10.460355 4.787586 10.411884 10.587383-.048472 5.799798-4.787586 10.460355-10.587383 10.411884l-290.589852-2.428583c-5.799798-.048471-10.460355-4.787586-10.411884-10.587383.148468-5.798962 4.887583-10.45952 10.587384-10.411884zM1006.900602 294.467721l290.589852-2.428582c5.799797-.048471 10.538911 4.612086 10.587383 10.411883.048471 5.799798-4.612086 10.538912-10.411884 10.587384l-290.589851 2.428582c-5.799798.048471-10.538912-4.612086-10.587384-10.411883.051525-5.800634 4.712083-10.539748 10.411884-10.587384zM1079.505 153.95c23.994-.025 47.993-.038 71.995-.038h71.877c24.002 0 48.001.013 71.994.038 5.773.025 10.448 4.71 10.461 10.488.013 5.779-4.637 10.472-10.388 10.512-47.931.04-95.875.075-143.826.1-47.952.025-95.912.038-143.872.038-5.78 0-10.472-4.663-10.506-10.426.065-5.763 4.69-10.448 10.316-10.488-.013-.041-.013-.084 0-.124 23.972-.04 47.956-.075 71.949-.1M1337.047481 12.275007l290.503576 7.4855c5.798075.149402 10.37545 4.968908 10.226049 10.766984-.149401 5.798075-4.968908 10.37545-10.766984 10.226049l-290.503575-7.485501c-5.798075-.149401-10.37545-4.968908-10.226049-10.766984.249368-5.7955 5.068875-10.372873 10.766983-10.226048zM1337.35459 295.375922l290.503576-7.485501c5.798076-.149401 10.617582 4.427973 10.766983 10.226049.149401 5.798075-4.427973 10.617582-10.226049 10.766983l-290.503575 7.485501c-5.798075.1494-10.617582-4.427973-10.766983-10.226049-.049434-5.800651 4.52794-10.620158 10.226049-10.766983zM1409.871 153.846c23.528-.077 47.076-.118 70.629-.118h70.267c23.553 0 47.102.041 70.63.118 5.715.076 10.339 4.73 10.379 10.463.04 5.734-4.505 10.413-10.155 10.537-46.885.124-93.809.232-140.759.308-46.949.077-93.921.118-140.896.118-5.74 0-10.413-4.587-10.518-10.273-.009-5.686 4.459-10.34 9.931-10.464-.04-.124-.04-.257 0-.381 23.463-.124 46.964-.232 70.492-.308M1668.238332 14.02743l290.135624 16.421921c5.790732.32776 10.217622 5.285849 9.889862 11.07658-.32776 5.790732-5.285849 10.217623-11.07658 9.889862l-290.135625-16.42192c-5.790731-.327761-10.217622-5.28585-9.889862-11.076581.4276-5.78508 5.38569-10.211971 11.07658-9.889862zM1668.905088 296.764569l290.135624-16.421921c5.790732-.32776 10.74882 4.09913 11.07658 9.889862.32776 5.790731-4.09913 10.74882-9.889862 11.07658l-290.135624 16.421921c-5.790732.32776-10.74882-4.09913-11.07658-9.889862-.22792-5.796383 4.19897-10.75447 9.889862-11.07658zM1741.285 153.661c22.704-.168 45.456-.259 68.215-.259h67.42c22.759 0 45.511.091 68.215.259 5.614.168 10.148 4.767 10.236 10.421.089 5.654-4.273 10.309-9.744 10.58-45.035.272-90.154.509-135.332.677-45.177.168-90.403.259-135.635.259-5.668 0-10.308-4.453-10.54-10.003-.138-5.551 4.052-10.149 9.253-10.421-.088-.272-.088-.565 0-.836 22.562-.272 45.207-.509 67.912-.677M2000.66631 16.77484l288.993394 30.515211c5.767934.609045 9.948414 5.776596 9.33937 11.54453-.609044 5.767934-5.776596 9.948414-11.54453 9.33937l-288.993394-30.51521c-5.767935-.609045-9.948414-5.776596-9.33937-11.54453.70849-5.757434 5.876042-9.937914 11.54453-9.33937zM2001.86487 298.395257l288.993394-30.51521c5.767935-.609044 10.935486 3.571435 11.54453 9.33937.609044 5.767934-3.571436 10.935485-9.33937 11.54453l-288.993394 30.51521c-5.767934.609044-10.935486-3.571436-11.54453-9.33937-.509597-5.778435 3.670883-10.945986 9.33937-11.54453zM2074.101 153.369c21.403-.312 42.894-.481 64.399-.481h62.919c21.505 0 42.995.169 64.399.481 5.453.313 9.844 4.824 10.008 10.353.164 5.529-3.906 10.144-9.093 10.65-42.11.505-84.377.946-126.753 1.259-42.376.312-84.84.481-127.318.481-5.554 0-10.143-4.239-10.573-9.575-.344-5.335 3.406-9.847 8.178-10.352-.164-.506-.164-1.051 0-1.557 21.138-.505 42.431-.946 63.834-1.259M2334.54503 20.690971l286.135343 50.743724c5.710891 1.012779 9.517982 6.46127 8.505203 12.172162-1.012779 5.71089-6.46127 9.517982-12.172161 8.505203l-286.135343-50.743724c-5.710892-1.012779-9.517983-6.46127-8.505204-12.172162 1.111243-5.693429 6.559735-9.50052 12.172162-8.505203zM2336.369065 299.53896l286.135343-50.743724c5.71089-1.01278 11.159382 2.794312 12.172161 8.505203 1.01278 5.710891-2.794311 11.159383-8.505203 12.172162l-286.135343 50.743723c-5.71089 1.01278-11.159382-2.794312-12.172161-8.505203-.914316-5.728353 2.892775-11.176844 8.505203-12.172162zM2408.616 152.947c19.523-.521 39.192-.802 58.884-.802h56.415c19.692 0 39.361.281 58.883.802 5.222.522 9.406 4.907 9.68 10.255.275 5.347-3.375 9.906-8.153 10.75-37.884.844-76.028 1.579-114.356 2.101-38.327.521-76.801.802-115.298.802-5.391 0-9.905-3.931-10.623-8.956-.64-5.025 2.475-9.411 6.627-10.254-.274-.844-.274-1.753 0-2.597 19.079-.844 38.418-1.579 57.941-2.101M2669.611472 25.556907l280.479878 76.022355c5.598015 1.517308 8.904796 7.283173 7.387488 12.881189-1.517308 5.598015-7.283174 8.904795-12.881189 7.387487l-280.479877-76.022354c-5.598016-1.517308-8.904796-7.283173-7.387488-12.881189 1.613825-5.571855 7.37969-8.878635 12.881188-7.387488zM2671.837048 298.95907l280.479878-76.022355c5.598015-1.517308 11.36388 1.789472 12.881188 7.387488 1.517308 5.598015-1.789472 11.36388-7.387488 12.881188l-280.479877 76.022355c-5.598015 1.517308-11.36388-1.789473-12.881189-7.387488-1.42079-5.624176 1.88599-11.390041 7.387488-12.881189zM2744.61 152.413c17.137-.787 34.496-1.21 51.89-1.21h48.166c17.394 0 34.753.423 51.891 1.21 4.928.786 8.85 5.011 9.263 10.129.414 5.118-2.703 9.605-6.961 10.877-32.525 1.273-65.442 2.382-98.635 3.168-33.193.787-66.608 1.21-100.057 1.21-5.183 0-9.603-3.54-10.685-8.171-1.016-4.632 1.294-8.857 4.659-10.129-.413-1.273-.413-2.644 0-3.916 16.47-1.273 33.33-2.382 50.469-3.168" fill="#000000" stroke="#000000" stroke-width="18" stroke-miterlimit="10"/><g><path d="M3004.900783 30.576498l272.06112 102.13279c5.429988 2.038438 8.178313 8.090439 6.139875 13.520427-2.038439 5.429988-8.09044 8.178312-13.520427 6.139874L2997.52023 50.2368c-5.429989-2.038438-8.178313-8.090439-6.139875-13.520427 2.132059-5.394842 8.18406-8.143167 13.520427-6.139874zM3006.856332 295.931387l272.06112-102.13279c5.429988-2.038438 11.481989.709887 13.520427 6.139875 2.038439 5.429988-.709886 11.481988-6.139874 13.520427l-272.06112 102.13279c-5.429988 2.038438-11.481989-.709887-13.520427-6.139875-1.944818-5.465133.803506-11.517134 6.139874-13.520427zM3081.017 151.846c14.612-1.066 29.524-1.641 44.483-1.641h39.431c14.959 0 29.871.575 44.483 1.641 4.617 1.068 8.261 5.123 8.822 9.997.561 4.875-1.99 9.286-5.699 11.012-26.848 1.727-54.229 3.231-81.984 4.299-27.756 1.066-55.812 1.641-83.914 1.641-4.964 0-9.284-3.125-10.752-7.34-1.414-4.215.043-8.271 2.576-9.997-.561-1.727-.561-3.587 0-5.313 13.705-1.727 27.941-3.231 42.554-4.299" fill="#000000" stroke="#000000" stroke-width="18" stroke-miterlimit="10"/></g><g><path d="M3339.480015 34.98746l262.355852 124.971063c5.236283 2.49426 7.458267 8.758667 4.964006 13.99495-2.49426 5.236284-8.758667 7.458268-13.99495 4.964007L3330.449071 53.946416c-5.236284-2.49426-7.458268-8.758667-4.964007-13.99495 2.584542-5.19328 8.848948-7.415263 13.99495-4.964007z" fill="#000000" stroke="#000000" stroke-width="18" stroke-miterlimit="10"/><path d="M3340.375605 291.129085l262.355853-124.971063c5.236283-2.494261 11.50069-.272277 13.99495 4.964006 2.494261 5.236284.272277 11.50069-4.964006 13.99495l-262.355853 124.971064c-5.236283 2.494261-11.50069.272277-13.99495-4.964006-2.40398-5.279288-.181996-11.543694 4.964006-13.99495zM3416.716 151.334c12.328-1.32 25.027-2.032 37.784-2.032h31.529c12.757 0 25.457.712 37.784 2.032 4.335 1.321 7.729 5.224 8.423 9.877.695 4.655-1.345 8.997-4.557 11.134-21.714 2.137-44.087 4-66.925 5.321-22.837 1.32-46.046 2.032-69.313 2.032-4.764 0-8.994-2.751-10.811-6.589-1.775-3.838-1.088-7.741.691-9.877-.695-2.138-.695-4.44 0-6.577 11.204-2.137 23.067-4 35.395-5.321" fill="#000000" stroke="#000000" stroke-width="18" stroke-miterlimit="10"/></g><g><path d="M3673.054785 38.560627l252.811035 143.300176c5.045781 2.860087 6.816948 9.266565 3.956862 14.312346-2.860086 5.045782-9.266565 6.816948-14.312346 3.956862L3662.6993 56.829835c-5.045781-2.860086-6.816948-9.266565-3.956862-14.312346 2.947083-4.99647 9.353561-6.767636 14.312346-3.956862z" fill="#000000" stroke="#000000" stroke-width="18" stroke-miterlimit="10"/><path d="M3672.345656 285.695362l252.811035-143.300176c5.045781-2.860087 11.45226-1.08892 14.312346 3.956861 2.860086 5.045781 1.08892 11.45226-3.956862 14.312346L3682.70114 303.96457c-5.04578 2.860086-11.45226 1.08892-14.312346-3.956862-2.77309-5.095093-1.001923-11.501572 3.956862-14.312346zM3751.295 150.908c10.425-1.532 21.282-2.358 32.205-2.358h24.95c10.923 0 21.78.826 32.205 2.358 4.101 1.532 7.285 5.307 8.091 9.777.805 4.471-.809 8.756-3.606 11.236-17.439 2.478-35.643 4.639-54.385 6.171-18.741 1.532-37.915 2.358-57.155 2.358-4.599 0-8.753-2.44-10.861-5.964-2.075-3.524-2.031-7.299-.879-9.777-.805-2.48-.805-5.15 0-7.63 9.123-2.478 19.009-4.639 29.435-6.171" fill="#000000" stroke="#000000" stroke-width="18" stroke-miterlimit="10"/></g><g><path d="M4005.719807 41.386647l244.135224 157.627258c4.872623 3.146036 6.271754 9.643915 3.125718 14.516538-3.146036 4.872624-9.643915 6.271755-14.516539 3.125718L3994.328987 59.028903c-4.872623-3.146036-6.271754-9.643915-3.125718-14.516538 3.230047-4.818382 9.727926-6.217513 14.516538-3.125718z" fill="#000000" stroke="#000000" stroke-width="18" stroke-miterlimit="10"/><path d="M4003.15693 280.375168l244.135223-157.627258c4.872623-3.146036 11.370502-1.746906 14.516539 3.125718 3.146036 4.872623 1.746905 11.370502-3.125718 14.516538L4014.54775 298.017424c-4.872623 3.146037-11.370502 1.746906-14.516538-3.125718-3.062026-4.926865-1.662895-11.424744 3.125718-14.516538zM4084.816 150.562c8.883-1.703 18.247-2.621 27.684-2.621h19.618c9.437 0 18.801.918 27.684 2.621 3.911 1.704 6.925 5.375 7.821 9.697.896 4.322-.374 8.561-2.835 11.317-13.975 2.756-28.799 5.158-44.222 6.862-15.422 1.703-31.325 2.621-47.302 2.621-4.464 0-8.557-2.187-10.901-5.456-2.318-3.27-2.794-6.942-2.151-9.697-.895-2.757-.895-5.726 0-8.482 7.435-2.756 15.72-5.158 24.604-6.862" fill="#000000" stroke="#000000" stroke-width="18" stroke-miterlimit="10"/></g><g><path d="M4337.653036 43.620596l236.539431 168.811899c4.721021 3.369267 5.816408 9.92519 2.447141 14.64621-3.369267 4.721022-9.92519 5.816409-14.646211 2.447142l-236.539432-168.8119c-4.72102-3.369266-5.816408-9.92519-2.44714-14.64621 3.450663-4.66293 10.006586-5.758317 14.64621-2.447141z" fill="#000000" stroke="#000000" stroke-width="18" stroke-miterlimit="10"/><path d="M4333.19558 275.506078l236.539432-168.811899c4.721021-3.369267 11.276944-2.27388 14.646211 2.44714 3.369267 4.721022 2.27388 11.276945-2.44714 14.646212L4345.39465 292.59943c-4.721021 3.369267-11.276945 2.27388-14.646212-2.44714-3.28787-4.779113-2.192483-11.335036 2.447141-14.646212z" fill="#000000" stroke="#000000" stroke-width="18" stroke-miterlimit="10"/><path d="M4417.465 150.283c7.639-1.841 15.797-2.833 24.035-2.833h15.314c8.238 0 16.396.992 24.035 2.833 3.757 1.842 6.635 5.43 7.603 9.632.969 4.202-.022 8.404-2.213 11.384-11.178 2.979-23.274 5.576-36.018 7.418-12.744 1.841-26.006 2.833-39.349 2.833-4.356 0-8.4-1.982-10.934-5.046-2.514-3.065-3.41-6.653-3.177-9.632-.968-2.98-.968-6.191 0-9.171 6.073-2.979 13.065-5.576 20.704-7.418" fill="#000000" stroke="#000000" stroke-width="18" stroke-miterlimit="10"/></g><g><path d="M4669.01085 45.396122l230.019712 177.593053c4.590896 3.544528 5.438815 10.137026 1.894287 14.727922-3.544527 4.590895-10.137025 5.438815-14.727921 1.894287L4656.177216 62.018331c-4.590896-3.544527-5.438815-10.137025-1.894287-14.727921 3.62368-4.529783 10.21618-5.377703 14.727922-1.894288z" fill="#000000" stroke="#000000" stroke-width="18" stroke-miterlimit="10"/><path d="M4662.741606 271.205217l230.019711-177.593053c4.590896-3.544527 11.183394-2.696608 14.727922 1.894287 3.544527 4.590896 2.696608 11.183395-1.894288 14.727922L4675.57524 287.827426c-4.590896 3.544527-11.183394 2.696608-14.727922-1.894288-3.465374-4.652008-2.617455-11.244506 1.894288-14.727921z" fill="#000000" stroke="#000000" stroke-width="18" stroke-miterlimit="10"/><path d="M4749.417 150.057c6.633-1.953 13.815-3.005 21.083-3.005h11.832c7.268 0 14.451 1.052 21.083 3.005 3.634 1.954 6.401 5.474 7.428 9.579 1.027 4.106.261 8.277-1.71 11.438-8.916 3.16-18.806 5.915-29.383 7.869-10.576 1.953-21.703 3.005-32.915 3.005-4.268 0-8.272-1.818-10.96-4.715-2.673-2.899-3.909-6.419-4.008-9.579-1.027-3.161-1.027-6.567 0-9.728 4.972-3.16 10.917-5.915 17.55-7.869" fill="#000000" stroke="#000000" stroke-width="18" stroke-miterlimit="10"/></g><g><path d="M4999.91266 46.81397l224.496627 184.525402c4.480662 3.682889 5.127134 10.29818 1.444245 14.778842-3.682888 4.480662-10.298179 5.127134-14.77884 1.444246L4986.578063 63.037057c-4.480663-3.682888-5.127135-10.29818-1.444246-14.778842 3.76014-4.417164 10.375432-5.063636 14.778841-1.444245z" fill="#000000" stroke="#000000" stroke-width="18" stroke-miterlimit="10"/><path d="M4991.98217 267.489667l224.496627-184.525403c4.480662-3.682888 11.095953-3.036416 14.778841 1.444246s3.036416 11.095953-1.444246 14.778842l-224.496627 184.525402c-4.480663 3.682889-11.095953 3.036417-14.778842-1.444246-3.605635-4.54416-2.959163-11.15945 1.444246-14.778841z" fill="#000000" stroke="#000000" stroke-width="18" stroke-miterlimit="10"/><path d="M5080.81 149.874c5.816-2.043 12.209-3.145 18.69-3.145h9.011c6.481 0 12.874 1.102 18.69 3.145 3.533 2.045 6.211 5.51 7.286 9.537 1.074 4.027.491 8.173-1.303 11.481-7.082 3.306-15.184 6.189-24.005 8.234-8.82 2.043-18.216 3.145-27.701 3.145-4.197 0-8.169-1.685-10.982-4.448-2.801-2.763-4.312-6.229-4.68-9.536-1.075-3.308-1.075-6.871 0-10.179 4.078-3.306 9.176-6.189 14.994-8.234" fill="#000000" stroke="#000000" stroke-width="18" stroke-miterlimit="10"/></g><g><path d="M5330.447022 47.947964l219.871537 190.012808c4.388352 3.79241 4.87127 10.421647 1.07886 14.809998-3.79241 4.388352-10.421647 4.87127-14.809998 1.07886L5316.715883 63.836822c-4.388351-3.79241-4.87127-10.421647-1.07886-14.809998 3.868072-4.322965 10.49731-4.805884 14.81-1.07886z" fill="#000000" stroke="#000000" stroke-width="18" stroke-miterlimit="10"/><path d="M5321.039884 264.334568L5540.911421 74.32176c4.388352-3.79241 11.01759-3.309491 14.809999 1.07886 3.79241 4.388352 3.309492 11.01759-1.07886 14.809999l-219.871537 190.012808c-4.388351 3.79241-11.017589 3.309491-14.809999-1.07886-3.716748-4.453738-3.23383-11.082975 1.07886-14.809999z" fill="#000000" stroke="#000000" stroke-width="18" stroke-miterlimit="10"/><path d="M5411.747 149.726c5.155-2.117 10.908-3.258 16.753-3.258h6.727c5.844 0 11.597 1.141 16.753 3.258 3.452 2.118 6.056 5.539 7.17 9.502 1.113 3.963.678 8.09-.972 11.516-5.598 3.426-12.252 6.412-19.651 8.53-7.398 2.117-15.393 3.258-23.48 3.258-4.139 0-8.085-1.576-10.999-4.23-2.905-2.655-4.64-6.077-5.226-9.502-1.113-3.426-1.113-7.118 0-10.544 3.356-3.426 7.768-6.412 12.925-8.53" fill="#000000" stroke="#000000" stroke-width="18" stroke-miterlimit="10"/></g><g><path d="M5660.679905 48.852414l216.047507 194.349774c4.312029 3.87897 4.662956 10.516503.783986 14.828532-3.87897 4.312029-10.516504 4.662956-14.828532.783986L5646.635358 64.46493c-4.312028-3.87897-4.662955-10.516503-.783985-14.828532 3.953315-4.24515 10.590849-4.596076 14.828532-.783985z" fill="#000000" stroke="#000000" stroke-width="18" stroke-miterlimit="10"/><path d="M5649.994807 261.6993l216.047507-194.349773c4.312029-3.87897 10.949562-3.528043 14.828532.783985 3.87897 4.31203 3.528043 10.949563-.783985 14.828533l-216.047508 194.349774c-4.312028 3.87897-10.949562 3.528043-14.828532-.783986-3.804624-4.378907-3.453698-11.01644.783986-14.828532z" fill="#000000" stroke="#000000" stroke-width="18" stroke-miterlimit="10"/><path d="M5742.307 149.607c4.624-2.176 9.861-3.349 15.193-3.349h4.886c5.332 0 10.569 1.173 15.193 3.349 3.386 2.177 5.932 5.563 7.077 9.474 1.144 3.912.828 8.022-.707 11.544-4.401 3.522-9.889 6.591-16.142 8.768-6.252 2.176-13.119 3.349-20.079 3.349-4.093 0-8.018-1.489-11.013-4.055-2.989-2.567-4.903-5.953-5.664-9.474-1.145-3.522-1.145-7.316 0-10.838 2.773-3.522 6.632-6.591 11.256-8.768" fill="#000000" stroke="#000000" stroke-width="18" stroke-miterlimit="10"/></g><g><path d="M5990.661186 49.56784l212.936255 197.753664c4.249932 3.946907 4.495486 10.589173.54858 14.839106-3.946908 4.249932-10.589175 4.495486-14.839107.54858L5976.37066 64.955525c-4.249932-3.946907-4.495486-10.589174-.54858-14.839106 4.020183-4.181882 10.66245-4.427436 14.839107-.54858z" fill="#000000" stroke="#000000" stroke-width="18" stroke-miterlimit="10"/><path d="M5978.899084 259.53907l212.936255-197.753663c4.249932-3.946907 10.892198-3.701352 14.839106.54858 3.946907 4.249932 3.701352 10.892198-.54858 14.839106L5993.18961 274.926756c-4.249932 3.946907-10.892199 3.701352-14.839106-.54858-3.873632-4.317982-3.628078-10.960248.54858-14.839106z" fill="#000000" stroke="#000000" stroke-width="18" stroke-miterlimit="10"/><path d="M6072.552 149.512c4.199-2.224 9.025-3.421 13.948-3.421h3.418c4.923 0 9.749 1.197 13.948 3.421 3.334 2.224 5.834 5.581 7.003 9.451 1.169 3.872.948 7.969-.494 11.568-3.448 3.597-8.005 6.733-13.345 8.957-5.339 2.224-11.304 3.421-17.366 3.421-4.056 0-7.964-1.418-11.024-3.915-3.056-2.497-5.114-5.854-6.015-9.451-1.169-3.599-1.169-7.475 0-11.074 2.309-3.597 5.727-6.733 9.927-8.957" fill="#000000" stroke="#000000" stroke-width="18" stroke-miterlimit="10"/></g><g><path d="M6320.429258 50.124996l210.4597 200.38731c4.200504 3.999472 4.36341 10.64428.363938 14.844783-3.999472 4.200503-10.644279 4.363408-14.844782.363937l-210.4597-200.387311c-4.200504-3.999472-4.36341-10.644279-.363938-14.844782 4.071894-4.131547 10.716701-4.294452 14.844782-.363937z" fill="#000000" stroke="#000000" stroke-width="18" stroke-miterlimit="10"/><path d="M6307.786377 257.809914l210.4597-200.387311c4.200504-3.999471 10.845311-3.836566 14.844782.363937 3.999472 4.200503 3.836567 10.84531-.363937 14.844782l-210.4597 200.38731c-4.200504 3.999472-10.84531 3.836567-14.844782-.363936-3.92705-4.26946-3.764144-10.914267.363937-14.844782z" fill="#000000" stroke="#000000" stroke-width="18" stroke-miterlimit="10"/><path d="M6402.528 149.437c3.866-2.26 8.37-3.478 12.972-3.478h2.267c4.602 0 9.106 1.218 12.973 3.478 3.293 2.261 5.756 5.596 6.944 9.434 1.189 3.839 1.042 7.927-.327 11.585-2.701 3.658-6.529 6.846-11.152 9.107-4.622 2.26-9.882 3.478-15.24 3.478-4.027 0-7.922-1.364-11.032-3.806-3.109-2.442-5.279-5.777-6.29-9.434-1.188-3.658-1.188-7.599 0-11.257 1.945-3.658 5.017-6.846 8.885-9.107" fill="#000000" stroke="#000000" stroke-width="18" stroke-miterlimit="10"/></g><g><path d="M6650.014208 50.547614l208.549525 202.374543c4.162379 4.039134 4.26225 10.685187.223115 14.847566-4.039134 4.162379-10.685187 4.26225-14.847566.223115L6635.389757 65.618296c-4.162379-4.039134-4.26225-10.685188-.223115-14.847566 4.110899-4.092739 10.756952-4.19261 14.847566-.223116z" fill="#000000" stroke="#000000" stroke-width="18" stroke-miterlimit="10"/><path d="M6636.677936 256.470717L6845.22746 54.096174c4.162379-4.039134 10.808432-3.939263 14.847566.223116 4.039134 4.162378 3.939263 10.808432-.223115 14.847566l-208.549525 202.374542c-4.16238 4.039135-10.808432 3.939264-14.847567-.223115-3.967368-4.232019-3.867498-10.878072.223116-14.847566z" fill="#000000" stroke="#000000" stroke-width="18" stroke-miterlimit="10"/><path d="M6732.271 149.38c3.613-2.288 7.872-3.521 12.229-3.521h1.39c4.357 0 8.616 1.233 12.228 3.521 3.262 2.289 5.697 5.607 6.901 9.421 1.203 3.815 1.113 7.895-.201 11.599-2.13 3.703-5.402 6.931-9.479 9.22-4.077 2.288-8.798 3.521-13.619 3.521-4.005 0-7.89-1.323-11.039-3.722-3.149-2.4-5.404-5.718-6.499-9.421-1.203-3.704-1.203-7.694 0-11.398 1.667-3.703 4.476-6.931 8.089-9.22" fill="#000000" stroke="#000000" stroke-width="18" stroke-miterlimit="10"/></g><g><path d="M6979.440005 50.854308l207.146084 203.810843c4.134367 4.067801 4.18831 10.714386.120509 14.848754-4.0678 4.134368-10.714386 4.18831-14.848753.12051L6964.71176 65.82357c-4.134368-4.0678-4.18831-10.714385-.12051-14.848753 4.139083-4.064233 10.785668-4.118176 14.848754-.12051z" fill="#000000" stroke="#000000" stroke-width="18" stroke-miterlimit="10"/><path d="M6965.586564 255.483868l207.146084-203.810843c4.134367-4.067801 10.780952-4.013859 14.848753.120509 4.0678 4.134368 4.013859 10.780953-.12051 14.848753l-207.146083 203.810844c-4.134368 4.0678-10.780953 4.013859-14.848753-.12051-3.996519-4.204501-3.942577-10.851086.120509-14.848753z" fill="#000000" stroke="#000000" stroke-width="18" stroke-miterlimit="10"/><path d="M7061.813 149.339c3.429-2.309 7.508-3.553 11.687-3.553h.751c4.179 0 8.258 1.244 11.686 3.553 3.239 2.31 5.654 5.615 6.868 9.411 1.214 3.797 1.166 7.871-.108 11.608-1.715 3.736-4.582 6.993-8.261 9.303-3.678 2.309-8.008 3.553-12.437 3.553-3.989 0-7.867-1.292-11.045-3.661-3.177-2.37-5.495-5.676-6.651-9.412-1.214-3.737-1.214-7.762 0-11.499 1.465-3.736 4.081-6.993 7.51-9.303" fill="#000000" stroke="#000000" stroke-width="18" stroke-miterlimit="10"/></g><g><path d="M7308.726038 51.059882l206.197205 204.770781c4.11543 4.08696 4.1385 10.733724.05154 14.849153-4.08696 4.11543-10.733724 4.1385-14.849153.05154L7293.928425 65.960575c-4.11543-4.08696-4.1385-10.733724-.05154-14.849153 4.157915-4.044965 10.80468-4.068035 14.849153-.05154z" fill="#000000" stroke="#000000" stroke-width="18" stroke-miterlimit="10"/><path d="M7294.519252 254.815296l206.197205-204.77078c4.11543-4.08696 10.762193-4.06389 14.849153.05154 4.08696 4.115429 4.06389 10.762192-.05154 14.849152L7309.316866 269.71599c-4.11543 4.08696-10.762194 4.06389-14.849153-.05154-4.016005-4.185894-3.992934-10.832658.05154-14.849153z" fill="#000000" stroke="#000000" stroke-width="18" stroke-miterlimit="10"/><path d="M7391.178 149.311c3.304-2.323 7.263-3.574 11.322-3.574h.321c4.06 0 8.018 1.251 11.322 3.574 3.224 2.324 5.625 5.621 6.847 9.405 1.221 3.785 1.2 7.855-.047 11.615-1.436 3.758-4.03 7.034-7.442 9.358-3.411 2.323-7.477 3.574-11.643 3.574-3.978 0-7.851-1.272-11.048-3.62-3.197-2.35-5.557-5.647-6.753-9.405-1.222-3.759-1.222-7.809 0-11.569 1.328-3.758 3.816-7.034 7.121-9.358" fill="#000000" stroke="#000000" stroke-width="18" stroke-miterlimit="10"/></g><g><path d="M7637.888204 51.17627l205.65707 205.313249c4.104648 4.097787 4.110209 10.744588.012422 14.849237s-10.744588 4.11021-14.849237.012423l-205.65707-205.313248c-4.104648-4.097787-4.11021-10.744588-.012422-14.849237 4.168556-4.033998 10.815358-4.039559 14.849237-.012423z" fill="#000000" stroke="#000000" stroke-width="18" stroke-miterlimit="10"/><path d="M7623.478961 254.434243l205.65707-205.313248c4.104648-4.097786 10.75145-4.092226 14.849237.012423 4.097786 4.10465 4.092226 10.75145-.012423 14.849238l-205.65707 205.313248c-4.104649 4.097786-10.75145 4.092226-14.849237-.012423-4.027017-4.1753-4.021456-10.822102.012423-14.849238z" fill="#000000" stroke="#000000" stroke-width="18" stroke-miterlimit="10"/><path d="M7720.384 149.295c3.234-2.33 7.124-3.586 11.116-3.586h.077c3.992 0 7.883 1.256 11.116 3.586 3.215 2.332 5.608 5.624 6.834 9.401 1.226 3.778 1.221 7.847-.011 11.619-1.278 3.771-3.718 7.058-6.978 9.39-3.259 2.33-7.175 3.586-11.193 3.586-3.972 0-7.842-1.261-11.049-3.597-3.209-2.338-5.592-5.63-6.812-9.401-1.225-3.772-1.225-7.836 0-11.608 1.252-3.771 3.666-7.058 6.9-9.39" fill="#000000" stroke="#000000" stroke-width="18" stroke-miterlimit="10"/></g><g><path d="M7966.939697 51.213203l205.48523 205.485231c4.10122 4.10122 4.10122 10.748023 0 14.849242-4.101219 4.10122-10.748022 4.10122-14.849242 0l-205.48523-205.48523c-4.10122-4.10122-4.10122-10.748023 0-14.849243 4.17193-4.030508 10.818733-4.030508 14.849242 0z" fill="#000000" stroke="#000000" stroke-width="18" stroke-miterlimit="10"/><path d="M7952.465844 254.312943l205.48523-205.48523c4.10122-4.10122 10.748024-4.10122 14.849243 0 4.10122 4.10122 4.10122 10.748023 0 14.849242l-205.48523 205.48523c-4.10122 4.10122-10.748024 4.10122-14.849243 0-4.030509-4.17193-4.030509-10.818733 0-14.849242z" fill="#000000" stroke="#000000" stroke-width="18" stroke-miterlimit="10"/><path d="M8049.45 149.29c3.211-2.333 7.08-3.59 11.05-3.59 3.97 0 7.839 1.257 11.05 3.59 3.212 2.334 5.603 5.625 6.83 9.4 1.227 3.776 1.227 7.844 0 11.62-1.227 3.775-3.618 7.066-6.83 9.4-3.211 2.333-7.08 3.59-11.05 3.59-3.97 0-7.839-1.257-11.05-3.59-3.212-2.334-5.603-5.625-6.83-9.4-1.227-3.776-1.227-7.844 0-11.62 1.227-3.775 3.618-7.066 6.83-9.4" fill="#000000" stroke="#000000" stroke-width="18" stroke-miterlimit="10"/></g></svg>